<svg width="261" height="181" viewBox="0 0 261 181" fill="none" xmlns="http://www.w3.org/2000/svg">
<g filter="url(#filter0_d_313_1543)">
<mask id="path-1-inside-1_313_1543" fill="white">
<rect x="4" width="253" height="172.281" rx="18.0714"/>
</mask>
<rect x="4" width="253" height="172.281" rx="18.0714" stroke="#252525" stroke-width="72.2857" mask="url(#path-1-inside-1_313_1543)"/>
<circle cx="44.9621" cy="39.757" r="18.0714" fill="black"/>
<circle cx="44.9621" cy="39.757" r="18.0714" fill="#252525"/>
<circle cx="44.9621" cy="39.757" r="18.0714" fill="#252525"/>
<circle cx="44.9621" cy="136.138" r="18.0714" fill="black"/>
<circle cx="44.9621" cy="136.138" r="18.0714" fill="#252525"/>
<circle cx="44.9621" cy="136.138" r="18.0714" fill="#252525"/>
<circle cx="214.833" cy="136.138" r="18.0714" fill="black"/>
<circle cx="214.833" cy="136.138" r="18.0714" fill="#252525"/>
<circle cx="214.833" cy="136.138" r="18.0714" fill="#252525"/>
<circle cx="214.071" cy="40.0714" r="18.0714" fill="black"/>
<circle cx="214.071" cy="40.0714" r="18.0714" fill="#252525"/>
<circle cx="214.071" cy="40.0714" r="18.0714" fill="#252525"/>
<path d="M114.626 102.552L106.53 87.5168H105.316V102.552H93.9816V61.7831H111.851C115.128 61.7831 117.903 62.3614 120.178 63.518C122.453 64.636 124.168 66.1973 125.325 68.2021C126.481 70.1682 127.06 72.385 127.06 74.8524C127.06 77.6281 126.288 80.0762 124.746 82.1966C123.243 84.2784 121.026 85.7627 118.096 86.6494L127.291 102.552H114.626ZM105.316 79.7678H110.925C112.467 79.7678 113.624 79.4015 114.395 78.669C115.166 77.9365 115.552 76.8764 115.552 75.4885C115.552 74.1777 115.147 73.1561 114.337 72.4236C113.566 71.6525 112.429 71.267 110.925 71.267H105.316V79.7678ZM143.548 74.621C144.435 73.1175 145.688 71.9224 147.307 71.0357C148.926 70.149 150.835 69.7056 153.032 69.7056C155.615 69.7056 157.948 70.3803 160.029 71.7296C162.15 73.0789 163.808 75.0066 165.003 77.5125C166.236 80.0184 166.853 82.9484 166.853 86.3024C166.853 89.6565 166.236 92.6057 165.003 95.1502C163.808 97.6561 162.15 99.5837 160.029 100.933C157.948 102.282 155.615 102.957 153.032 102.957C150.835 102.957 148.926 102.514 147.307 101.627C145.727 100.74 144.474 99.5452 143.548 98.0416V118.05H132.214V70.1104H143.548V74.621ZM155.345 86.3024C155.345 84.182 154.767 82.5436 153.611 81.387C152.492 80.1919 151.105 79.5943 149.447 79.5943C147.789 79.5943 146.382 80.1919 145.225 81.387C144.107 82.5821 143.548 84.2206 143.548 86.3024C143.548 88.4228 144.107 90.0805 145.225 91.2757C146.382 92.4708 147.789 93.0684 149.447 93.0684C151.105 93.0684 152.492 92.4708 153.611 91.2757C154.767 90.042 155.345 88.3842 155.345 86.3024Z" fill="#252525"/>
</g>
<defs>
<filter id="filter0_d_313_1543" x="0" y="0" width="261" height="180.281" filterUnits="userSpaceOnUse" color-interpolation-filters="sRGB">
<feFlood flood-opacity="0" result="BackgroundImageFix"/>
<feColorMatrix in="SourceAlpha" type="matrix" values="0 0 0 0 0 0 0 0 0 0 0 0 0 0 0 0 0 0 127 0" result="hardAlpha"/>
<feOffset dy="4"/>
<feGaussianBlur stdDeviation="2"/>
<feComposite in2="hardAlpha" operator="out"/>
<feColorMatrix type="matrix" values="0 0 0 0 0 0 0 0 0 0 0 0 0 0 0 0 0 0 0.25 0"/>
<feBlend mode="normal" in2="BackgroundImageFix" result="effect1_dropShadow_313_1543"/>
<feBlend mode="normal" in="SourceGraphic" in2="effect1_dropShadow_313_1543" result="shape"/>
</filter>
</defs>
</svg>
