<svg width="646" height="221" viewBox="0 0 646 221" fill="none" xmlns="http://www.w3.org/2000/svg">
<path d="M352.214 180.608L328.678 149.692V180.608H311.624V110.598H328.678V141.315L352.015 110.598H372.06L344.934 144.905L373.058 180.608H352.214ZM394.027 181.406C388.575 181.406 383.655 180.242 379.267 177.915C374.946 175.588 371.522 172.264 368.995 167.942C366.535 163.621 365.305 158.568 365.305 152.783C365.305 147.066 366.568 142.046 369.095 137.724C371.621 133.336 375.079 129.979 379.467 127.652C383.855 125.325 388.775 124.161 394.227 124.161C399.679 124.161 404.599 125.325 408.987 127.652C413.375 129.979 416.832 133.336 419.359 137.724C421.885 142.046 423.148 147.066 423.148 152.783C423.148 158.501 421.852 163.554 419.259 167.942C416.732 172.264 413.242 175.588 408.787 177.915C404.399 180.242 399.479 181.406 394.027 181.406ZM394.027 166.646C397.285 166.646 400.044 165.449 402.305 163.056C404.632 160.662 405.795 157.238 405.795 152.783C405.795 148.329 404.665 144.905 402.405 142.511C400.211 140.118 397.485 138.921 394.227 138.921C390.902 138.921 388.143 140.118 385.949 142.511C383.755 144.838 382.658 148.262 382.658 152.783C382.658 157.238 383.722 160.662 385.849 163.056C388.044 165.449 390.769 166.646 394.027 166.646ZM453.637 124.361C460.153 124.361 465.339 126.488 469.195 130.743C473.118 134.932 475.079 140.716 475.079 148.096V180.608H458.125V150.39C458.125 146.667 457.161 143.775 455.233 141.713C453.305 139.652 450.712 138.622 447.454 138.622C444.196 138.622 441.603 139.652 439.675 141.713C437.747 143.775 436.783 146.667 436.783 150.39V180.608H419.729V124.959H436.783V132.339C438.512 129.879 440.839 127.951 443.764 126.555C446.69 125.092 449.981 124.361 453.637 124.361ZM471.073 152.684C471.073 146.966 472.137 141.946 474.264 137.625C476.458 133.303 479.417 129.979 483.14 127.652C486.863 125.325 491.019 124.161 495.606 124.161C499.529 124.161 502.953 124.959 505.878 126.555C508.87 128.15 511.164 130.245 512.76 132.838V124.959H529.813V180.608H512.76V172.729C511.098 175.322 508.771 177.417 505.779 179.012C502.853 180.608 499.429 181.406 495.507 181.406C490.986 181.406 486.863 180.242 483.14 177.915C479.417 175.522 476.458 172.164 474.264 167.843C472.137 163.454 471.073 158.402 471.073 152.684ZM512.76 152.783C512.76 148.528 511.563 145.171 509.169 142.711C506.842 140.251 503.984 139.021 500.593 139.021C497.202 139.021 494.31 140.251 491.916 142.711C489.589 145.104 488.426 148.429 488.426 152.684C488.426 156.939 489.589 160.33 491.916 162.856C494.31 165.316 497.202 166.546 500.593 166.546C503.984 166.546 506.842 165.316 509.169 162.856C511.563 160.396 512.76 157.039 512.76 152.783ZM563.593 124.361C570.109 124.361 575.294 126.488 579.151 130.743C583.073 134.932 585.035 140.716 585.035 148.096V180.608H568.081V150.39C568.081 146.667 567.117 143.775 565.189 141.713C563.26 139.652 560.667 138.622 557.41 138.622C554.152 138.622 551.559 139.652 549.631 141.713C547.703 143.775 546.739 146.667 546.739 150.39V180.608H529.685V124.959H546.739V132.339C548.467 129.879 550.794 127.951 553.72 126.555C556.645 125.092 559.936 124.361 563.593 124.361ZM605.562 124.161C609.484 124.161 612.909 124.959 615.834 126.555C618.826 128.15 621.12 130.245 622.715 132.838V124.959H639.769V180.508C639.769 185.628 638.738 190.248 636.677 194.371C634.683 198.559 631.591 201.884 627.403 204.343C623.28 206.803 618.128 208.033 611.944 208.033C603.7 208.033 597.018 206.072 591.899 202.149C586.779 198.293 583.854 193.041 583.123 186.392H599.977C600.509 188.52 601.772 190.182 603.767 191.379C605.761 192.642 608.221 193.274 611.147 193.274C614.67 193.274 617.463 192.243 619.524 190.182C621.651 188.187 622.715 184.963 622.715 180.508V172.63C621.053 175.223 618.759 177.35 615.834 179.012C612.909 180.608 609.484 181.406 605.562 181.406C600.974 181.406 596.819 180.242 593.096 177.915C589.372 175.522 586.414 172.164 584.22 167.843C582.092 163.454 581.028 158.402 581.028 152.684C581.028 146.966 582.092 141.946 584.22 137.625C586.414 133.303 589.372 129.979 593.096 127.652C596.819 125.325 600.974 124.161 605.562 124.161ZM622.715 152.783C622.715 148.528 621.518 145.171 619.125 142.711C616.798 140.251 613.939 139.021 610.548 139.021C607.157 139.021 604.265 140.251 601.872 142.711C599.545 145.104 598.381 148.429 598.381 152.684C598.381 156.939 599.545 160.33 601.872 162.856C604.265 165.316 607.157 166.546 610.548 166.546C613.939 166.546 616.798 165.316 619.125 162.856C621.518 160.396 622.715 157.039 622.715 152.783Z" fill="#1F66F7"/>
<path d="M352.214 180.608L348.91 183.124L350.156 184.761H352.214V180.608ZM328.678 149.692L331.983 147.176L324.525 137.379V149.692H328.678ZM328.678 180.608V184.761H332.831V180.608H328.678ZM311.624 180.608H307.471V184.761H311.624V180.608ZM311.624 110.598V106.445H307.471V110.598H311.624ZM328.678 110.598H332.831V106.445H328.678V110.598ZM328.678 141.315H324.525V153.647L331.985 143.827L328.678 141.315ZM352.015 110.598V106.445H349.954L348.708 108.085L352.015 110.598ZM372.06 110.598L375.318 113.174L380.639 106.445H372.06V110.598ZM344.934 144.905L341.676 142.329L339.643 144.9L341.671 147.475L344.934 144.905ZM373.058 180.608V184.761H381.616L376.32 178.038L373.058 180.608ZM355.519 178.092L331.983 147.176L325.373 152.208L348.91 183.124L355.519 178.092ZM324.525 149.692V180.608H332.831V149.692H324.525ZM328.678 176.455H311.624V184.761H328.678V176.455ZM315.778 180.608V110.598H307.471V180.608H315.778ZM311.624 114.751H328.678V106.445H311.624V114.751ZM324.525 110.598V141.315H332.831V110.598H324.525ZM331.985 143.827L355.322 113.111L348.708 108.085L325.371 138.802L331.985 143.827ZM352.015 114.751H372.06V106.445H352.015V114.751ZM368.802 108.022L341.676 142.329L348.192 147.481L375.318 113.174L368.802 108.022ZM341.671 147.475L369.795 183.178L376.32 178.038L348.197 142.335L341.671 147.475ZM373.058 176.455H352.214V184.761H373.058V176.455ZM379.267 177.915L377.298 181.572L377.31 181.578L377.321 181.585L379.267 177.915ZM368.995 167.942L365.386 169.997L365.398 170.018L365.41 170.038L368.995 167.942ZM369.095 137.724L372.681 139.82L372.687 139.809L372.694 139.797L369.095 137.724ZM379.467 127.652L381.413 131.321L381.413 131.321L379.467 127.652ZM408.987 127.652L407.041 131.321L407.041 131.321L408.987 127.652ZM419.359 137.724L415.759 139.797L415.766 139.809L415.773 139.82L419.359 137.724ZM419.259 167.942L415.683 165.829L415.678 165.838L415.673 165.846L419.259 167.942ZM408.787 177.915L406.864 174.234L406.853 174.24L406.841 174.246L408.787 177.915ZM402.305 163.056L399.327 160.16L399.306 160.182L399.285 160.204L402.305 163.056ZM402.405 142.511L399.343 145.318L399.364 145.341L399.385 145.363L402.405 142.511ZM385.949 142.511L388.971 145.361L388.991 145.339L389.011 145.318L385.949 142.511ZM385.849 163.056L382.745 165.815L382.766 165.839L382.788 165.862L385.849 163.056ZM394.027 177.252C389.186 177.252 384.945 176.225 381.213 174.246L377.321 181.585C382.366 184.26 387.965 185.559 394.027 185.559V177.252ZM381.236 174.258C377.601 172.301 374.73 169.523 372.581 165.846L365.41 170.038C368.313 175.005 372.291 178.876 377.298 181.572L381.236 174.258ZM372.605 165.888C370.556 162.288 369.459 157.966 369.459 152.783H361.152C361.152 159.17 362.515 164.954 365.386 169.997L372.605 165.888ZM369.459 152.783C369.459 147.696 370.576 143.42 372.681 139.82L365.509 135.628C362.561 140.672 361.152 146.435 361.152 152.783H369.459ZM372.694 139.797C374.839 136.072 377.729 133.274 381.413 131.321L377.521 123.982C372.428 126.683 368.404 130.6 365.496 135.652L372.694 139.797ZM381.413 131.321C385.144 129.342 389.386 128.314 394.227 128.314V120.008C388.164 120.008 382.565 121.307 377.521 123.982L381.413 131.321ZM394.227 128.314C399.068 128.314 403.309 129.342 407.041 131.321L410.933 123.982C405.888 121.307 400.289 120.008 394.227 120.008V128.314ZM407.041 131.321C410.724 133.274 413.615 136.072 415.759 139.797L422.958 135.652C420.05 130.6 416.025 126.683 410.933 123.982L407.041 131.321ZM415.773 139.82C417.877 143.42 418.995 147.696 418.995 152.783H427.302C427.302 146.435 425.893 140.672 422.944 135.628L415.773 139.82ZM418.995 152.783C418.995 157.851 417.853 162.157 415.683 165.829L422.835 170.055C425.85 164.952 427.302 159.152 427.302 152.783H418.995ZM415.673 165.846C413.543 169.491 410.629 172.267 406.864 174.234L410.71 181.597C415.854 178.909 419.922 175.037 422.844 170.038L415.673 165.846ZM406.841 174.246C403.11 176.225 398.868 177.252 394.027 177.252V185.559C400.09 185.559 405.689 184.26 410.733 181.585L406.841 174.246ZM394.027 170.799C398.441 170.799 402.289 169.122 405.324 165.907L399.285 160.204C397.8 161.776 396.129 162.492 394.027 162.492V170.799ZM405.283 165.951C408.588 162.551 409.949 157.947 409.949 152.783H401.642C401.642 156.529 400.676 158.773 399.327 160.16L405.283 165.951ZM409.949 152.783C409.949 147.65 408.638 143.063 405.424 139.66L399.385 145.363C400.692 146.747 401.642 149.008 401.642 152.783H409.949ZM405.466 139.705C402.482 136.45 398.644 134.768 394.227 134.768V143.074C396.325 143.074 397.939 143.786 399.343 145.318L405.466 139.705ZM394.227 134.768C389.77 134.768 385.889 136.43 382.888 139.705L389.011 145.318C390.397 143.805 392.035 143.074 394.227 143.074V134.768ZM382.927 139.662C379.753 143.029 378.505 147.642 378.505 152.783H386.812C386.812 148.883 387.758 146.648 388.971 145.361L382.927 139.662ZM378.505 152.783C378.505 157.858 379.718 162.409 382.745 165.815L388.954 160.296C387.726 158.915 386.812 156.618 386.812 152.783H378.505ZM382.788 165.862C385.772 169.117 389.61 170.799 394.027 170.799V162.492C391.929 162.492 390.316 161.781 388.911 160.249L382.788 165.862ZM469.195 130.743L466.118 133.532L466.14 133.557L466.164 133.582L469.195 130.743ZM475.079 180.608V184.761H479.233V180.608H475.079ZM458.125 180.608H453.972V184.761H458.125V180.608ZM455.233 141.713L452.2 144.551L452.2 144.551L455.233 141.713ZM439.675 141.713L442.708 144.551L442.708 144.551L439.675 141.713ZM436.783 180.608V184.761H440.936V180.608H436.783ZM419.729 180.608H415.576V184.761H419.729V180.608ZM419.729 124.959V120.806H415.576V124.959H419.729ZM436.783 124.959H440.936V120.806H436.783V124.959ZM436.783 132.339H432.63V145.473L440.181 134.727L436.783 132.339ZM443.764 126.555L445.553 130.303L445.588 130.287L445.622 130.269L443.764 126.555ZM453.637 128.514C459.155 128.514 463.159 130.267 466.118 133.532L472.273 127.954C467.519 122.709 461.151 120.207 453.637 120.207V128.514ZM466.164 133.582C469.177 136.8 470.926 141.458 470.926 148.096H479.233C479.233 139.974 477.059 133.064 472.227 127.904L466.164 133.582ZM470.926 148.096V180.608H479.233V148.096H470.926ZM475.079 176.455H458.125V184.761H475.079V176.455ZM462.279 180.608V150.39H453.972V180.608H462.279ZM462.279 150.39C462.279 145.958 461.12 141.926 458.266 138.876L452.2 144.551C453.203 145.623 453.972 147.375 453.972 150.39H462.279ZM458.266 138.876C455.429 135.843 451.667 134.468 447.454 134.468V142.775C449.757 142.775 451.181 143.461 452.2 144.551L458.266 138.876ZM447.454 134.468C443.241 134.468 439.479 135.843 436.642 138.876L442.708 144.551C443.728 143.461 445.152 142.775 447.454 142.775V134.468ZM436.642 138.876C433.789 141.926 432.63 145.958 432.63 150.39H440.936C440.936 147.375 441.706 145.623 442.708 144.551L436.642 138.876ZM432.63 150.39V180.608H440.936V150.39H432.63ZM436.783 176.455H419.729V184.761H436.783V176.455ZM423.883 180.608V124.959H415.576V180.608H423.883ZM419.729 129.112H436.783V120.806H419.729V129.112ZM432.63 124.959V132.339H440.936V124.959H432.63ZM440.181 134.727C441.468 132.896 443.22 131.416 445.553 130.303L441.975 122.806C438.457 124.485 435.556 126.861 433.385 129.951L440.181 134.727ZM445.622 130.269C447.905 129.128 450.548 128.514 453.637 128.514V120.207C449.413 120.207 445.474 121.056 441.907 122.84L445.622 130.269ZM474.264 137.625L470.561 135.744L470.549 135.767L470.538 135.79L474.264 137.625ZM483.14 127.652L485.341 131.174L485.341 131.174L483.14 127.652ZM505.878 126.555L503.89 130.201L503.907 130.21L503.924 130.219L505.878 126.555ZM512.76 132.838L509.222 135.014L516.913 147.512V132.838H512.76ZM512.76 124.959V120.806H508.606V124.959H512.76ZM529.813 124.959H533.967V120.806H529.813V124.959ZM529.813 180.608V184.761H533.967V180.608H529.813ZM512.76 180.608H508.606V184.761H512.76V180.608ZM512.76 172.729H516.913V158.554L509.263 170.488L512.76 172.729ZM505.779 179.012L503.824 175.348L503.807 175.357L503.79 175.366L505.779 179.012ZM483.14 177.915L480.894 181.409L480.916 181.423L480.939 181.437L483.14 177.915ZM474.264 167.843L470.527 169.655L470.544 169.689L470.561 169.723L474.264 167.843ZM509.169 142.711L506.152 145.565L506.172 145.586L506.193 145.607L509.169 142.711ZM491.916 142.711L488.939 139.814L488.938 139.816L491.916 142.711ZM491.916 162.856L488.861 165.67L488.9 165.712L488.939 165.752L491.916 162.856ZM509.169 162.856L506.193 159.96L506.172 159.981L506.152 160.002L509.169 162.856ZM475.226 152.684C475.226 147.484 476.192 143.113 477.99 139.459L470.538 135.79C468.082 140.78 466.92 146.448 466.92 152.684H475.226ZM477.968 139.505C479.856 135.785 482.324 133.059 485.341 131.174L480.939 124.13C476.51 126.898 473.06 130.821 470.561 135.744L477.968 139.505ZM485.341 131.174C488.374 129.278 491.761 128.314 495.606 128.314V120.008C490.277 120.008 485.353 121.371 480.939 124.13L485.341 131.174ZM495.606 128.314C498.957 128.314 501.674 128.992 503.89 130.201L507.867 122.908C504.232 120.925 500.101 120.008 495.606 120.008V128.314ZM503.924 130.219C506.341 131.509 508.056 133.118 509.222 135.014L516.297 130.661C514.272 127.371 511.399 124.792 507.833 122.89L503.924 130.219ZM516.913 132.838V124.959H508.606V132.838H516.913ZM512.76 129.112H529.813V120.806H512.76V129.112ZM525.66 124.959V180.608H533.967V124.959H525.66ZM529.813 176.455H512.76V184.761H529.813V176.455ZM516.913 180.608V172.729H508.606V180.608H516.913ZM509.263 170.488C508.022 172.423 506.254 174.052 503.824 175.348L507.733 182.677C511.288 180.781 514.173 178.221 516.256 174.971L509.263 170.488ZM503.79 175.366C501.574 176.574 498.858 177.252 495.507 177.252V185.559C500.001 185.559 504.132 184.641 507.768 182.658L503.79 175.366ZM495.507 177.252C491.74 177.252 488.384 176.295 485.341 174.393L480.939 181.437C485.343 184.19 490.231 185.559 495.507 185.559V177.252ZM485.386 174.422C482.341 172.464 479.86 169.691 477.968 165.962L470.561 169.723C473.056 174.638 476.492 178.579 480.894 181.409L485.386 174.422ZM478.001 166.031C476.191 162.297 475.226 157.882 475.226 152.684H466.92C466.92 158.922 468.082 164.612 470.527 169.655L478.001 166.031ZM516.913 152.783C516.913 147.72 515.466 143.226 512.146 139.814L506.193 145.607C507.66 147.116 508.606 149.337 508.606 152.783H516.913ZM512.187 139.857C509.074 136.566 505.123 134.867 500.593 134.867V143.174C502.844 143.174 504.611 143.936 506.152 145.565L512.187 139.857ZM500.593 134.867C496.065 134.867 492.104 136.562 488.939 139.814L494.893 145.607C496.516 143.94 498.339 143.174 500.593 143.174V134.867ZM488.938 139.816C485.666 143.181 484.272 147.658 484.272 152.684H492.579C492.579 149.2 493.513 147.027 494.894 145.606L488.938 139.816ZM484.272 152.684C484.272 157.721 485.669 162.204 488.861 165.67L494.971 160.042C493.509 158.455 492.579 156.157 492.579 152.684H484.272ZM488.939 165.752C492.104 169.005 496.065 170.699 500.593 170.699V162.393C498.339 162.393 496.516 161.627 494.893 159.96L488.939 165.752ZM500.593 170.699C505.123 170.699 509.074 169.001 512.187 165.71L506.152 160.002C504.611 161.631 502.844 162.393 500.593 162.393V170.699ZM512.146 165.752C515.466 162.341 516.913 157.847 516.913 152.783H508.606C508.606 156.23 507.66 158.451 506.193 159.96L512.146 165.752ZM579.151 130.743L576.073 133.532L576.096 133.557L576.119 133.582L579.151 130.743ZM585.035 180.608V184.761H589.188V180.608H585.035ZM568.081 180.608H563.927V184.761H568.081V180.608ZM565.189 141.713L562.155 144.551L562.155 144.551L565.189 141.713ZM549.631 141.713L552.664 144.551L552.664 144.551L549.631 141.713ZM546.739 180.608V184.761H550.892V180.608H546.739ZM529.685 180.608H525.532V184.761H529.685V180.608ZM529.685 124.959V120.806H525.532V124.959H529.685ZM546.739 124.959H550.892V120.806H546.739V124.959ZM546.739 132.339H542.585V145.473L550.137 134.727L546.739 132.339ZM553.72 126.555L555.509 130.303L555.543 130.287L555.577 130.269L553.72 126.555ZM563.593 128.514C569.111 128.514 573.114 130.267 576.073 133.532L582.228 127.954C577.475 122.709 571.106 120.207 563.593 120.207V128.514ZM576.119 133.582C579.133 136.8 580.881 141.458 580.881 148.096H589.188C589.188 139.974 587.014 133.064 582.182 127.904L576.119 133.582ZM580.881 148.096V180.608H589.188V148.096H580.881ZM585.035 176.455H568.081V184.761H585.035V176.455ZM572.234 180.608V150.39H563.927V180.608H572.234ZM572.234 150.39C572.234 145.958 571.075 141.926 568.222 138.876L562.155 144.551C563.158 145.623 563.927 147.375 563.927 150.39H572.234ZM568.222 138.876C565.385 135.843 561.623 134.468 557.41 134.468V142.775C559.712 142.775 561.136 143.461 562.155 144.551L568.222 138.876ZM557.41 134.468C553.196 134.468 549.435 135.843 546.598 138.876L552.664 144.551C553.683 143.461 555.107 142.775 557.41 142.775V134.468ZM546.598 138.876C543.744 141.926 542.585 145.958 542.585 150.39H550.892C550.892 147.375 551.661 145.623 552.664 144.551L546.598 138.876ZM542.585 150.39V180.608H550.892V150.39H542.585ZM546.739 176.455H529.685V184.761H546.739V176.455ZM533.838 180.608V124.959H525.532V180.608H533.838ZM529.685 129.112H546.739V120.806H529.685V129.112ZM542.585 124.959V132.339H550.892V124.959H542.585ZM550.137 134.727C551.423 132.896 553.176 131.416 555.509 130.303L551.931 122.806C548.413 124.485 545.511 126.861 543.34 129.951L550.137 134.727ZM555.577 130.269C557.861 129.128 560.504 128.514 563.593 128.514V120.207C559.368 120.207 555.429 121.056 551.862 122.84L555.577 130.269ZM615.834 126.555L613.845 130.201L613.862 130.21L613.879 130.219L615.834 126.555ZM622.715 132.838L619.178 135.014L626.869 147.512V132.838H622.715ZM622.715 124.959V120.806H618.562V124.959H622.715ZM639.769 124.959H643.922V120.806H639.769V124.959ZM636.677 194.371L632.962 192.513L632.945 192.549L632.927 192.585L636.677 194.371ZM627.403 204.343L625.299 200.762L625.287 200.769L625.274 200.777L627.403 204.343ZM591.899 202.149L594.425 198.853L594.411 198.842L594.398 198.832L591.899 202.149ZM583.123 186.392V182.239H578.487L578.994 186.846L583.123 186.392ZM599.977 186.392L604.006 185.385L603.22 182.239H599.977V186.392ZM603.767 191.379L605.989 187.87L605.947 187.843L605.904 187.817L603.767 191.379ZM619.524 190.182L616.683 187.152L616.634 187.198L616.587 187.245L619.524 190.182ZM622.715 172.63H626.869V158.454L619.219 170.388L622.715 172.63ZM615.834 179.012L617.823 182.658L617.854 182.641L617.886 182.623L615.834 179.012ZM593.096 177.915L590.85 181.409L590.872 181.423L590.894 181.437L593.096 177.915ZM584.22 167.843L580.482 169.655L580.499 169.689L580.516 169.723L584.22 167.843ZM584.22 137.625L580.516 135.744L580.505 135.767L580.493 135.79L584.22 137.625ZM593.096 127.652L595.297 131.174L595.297 131.174L593.096 127.652ZM619.125 142.711L616.108 145.565L616.128 145.586L616.148 145.607L619.125 142.711ZM601.872 142.711L598.895 139.814L598.894 139.816L601.872 142.711ZM601.872 162.856L598.817 165.67L598.855 165.712L598.895 165.752L601.872 162.856ZM619.125 162.856L616.148 159.96L616.128 159.981L616.108 160.002L619.125 162.856ZM605.562 128.314C608.913 128.314 611.63 128.992 613.845 130.201L617.823 122.908C614.187 120.925 610.056 120.008 605.562 120.008V128.314ZM613.879 130.219C616.297 131.509 618.011 133.118 619.178 135.014L626.252 130.661C624.228 127.371 621.355 124.792 617.788 122.89L613.879 130.219ZM626.869 132.838V124.959H618.562V132.838H626.869ZM622.715 129.112H639.769V120.806H622.715V129.112ZM635.616 124.959V180.508H643.922V124.959H635.616ZM635.616 180.508C635.616 185.055 634.704 189.029 632.962 192.513L640.392 196.228C642.772 191.468 643.922 186.2 643.922 180.508H635.616ZM632.927 192.585C631.307 195.987 628.807 198.702 625.299 200.762L629.506 207.925C634.375 205.065 638.058 201.131 640.427 196.156L632.927 192.585ZM625.274 200.777C621.956 202.757 617.59 203.88 611.944 203.88V212.187C618.665 212.187 624.605 210.85 629.531 207.91L625.274 200.777ZM611.944 203.88C604.357 203.88 598.639 202.082 594.425 198.853L589.373 205.446C595.397 210.063 603.044 212.187 611.944 212.187V203.88ZM594.398 198.832C590.237 195.698 587.863 191.504 587.251 185.938L578.994 186.846C579.845 194.577 583.322 200.889 589.4 205.467L594.398 198.832ZM583.123 190.546H599.977V182.239H583.123V190.546ZM595.948 187.4C596.764 190.666 598.754 193.215 601.63 194.94L605.904 187.817C604.79 187.149 604.254 186.374 604.006 185.385L595.948 187.4ZM601.544 194.888C604.346 196.662 607.622 197.427 611.147 197.427V189.12C608.82 189.12 607.176 188.622 605.989 187.87L601.544 194.888ZM611.147 197.427C615.526 197.427 619.463 196.117 622.461 193.119L616.587 187.245C615.463 188.369 613.815 189.12 611.147 189.12V197.427ZM622.365 193.212C625.685 190.099 626.869 185.511 626.869 180.508H618.562C618.562 184.415 617.618 186.275 616.683 187.152L622.365 193.212ZM626.869 180.508V172.63H618.562V180.508H626.869ZM619.219 170.388C617.953 172.363 616.177 174.04 613.782 175.401L617.886 182.623C621.341 180.66 624.153 178.082 626.212 174.871L619.219 170.388ZM613.845 175.366C611.63 176.574 608.913 177.252 605.562 177.252V185.559C610.056 185.559 614.187 184.641 617.823 182.658L613.845 175.366ZM605.562 177.252C601.716 177.252 598.33 176.289 595.297 174.393L590.894 181.437C595.308 184.196 600.232 185.559 605.562 185.559V177.252ZM595.342 174.422C592.297 172.464 589.816 169.691 587.923 165.962L580.516 169.723C583.012 174.638 586.448 178.579 590.85 181.409L595.342 174.422ZM587.957 166.031C586.147 162.297 585.182 157.882 585.182 152.684H576.875C576.875 158.922 578.038 164.612 580.482 169.655L587.957 166.031ZM585.182 152.684C585.182 147.484 586.147 143.113 587.946 139.459L580.493 135.79C578.037 140.78 576.875 146.448 576.875 152.684H585.182ZM587.923 139.505C589.812 135.785 592.28 133.059 595.297 131.174L590.894 124.13C586.465 126.898 583.016 130.821 580.516 135.744L587.923 139.505ZM595.297 131.174C598.33 129.278 601.716 128.314 605.562 128.314V120.008C600.232 120.008 595.308 121.371 590.894 124.13L595.297 131.174ZM626.869 152.783C626.869 147.72 625.421 143.226 622.102 139.814L616.148 145.607C617.616 147.116 618.562 149.337 618.562 152.783H626.869ZM622.142 139.857C619.03 136.566 615.079 134.867 610.548 134.867V143.174C612.799 143.174 614.566 143.936 616.108 145.565L622.142 139.857ZM610.548 134.867C606.021 134.867 602.06 136.562 598.895 139.814L604.849 145.607C606.471 143.94 608.294 143.174 610.548 143.174V134.867ZM598.894 139.816C595.621 143.181 594.228 147.658 594.228 152.684H602.535C602.535 149.2 603.468 147.027 604.85 145.606L598.894 139.816ZM594.228 152.684C594.228 157.721 595.625 162.204 598.817 165.67L604.927 160.042C603.465 158.455 602.535 156.157 602.535 152.684H594.228ZM598.895 165.752C602.06 169.005 606.021 170.699 610.548 170.699V162.393C608.294 162.393 606.471 161.627 604.849 159.96L598.895 165.752ZM610.548 170.699C615.079 170.699 619.03 169.001 622.142 165.71L616.108 160.002C614.566 161.631 612.799 162.393 610.548 162.393V170.699ZM622.102 165.752C625.421 162.341 626.869 157.847 626.869 152.783H618.562C618.562 156.23 617.616 158.451 616.148 159.96L622.102 165.752Z" fill="white"/>
<path d="M293.709 110L317.245 79.0839V110H334.299V39.99H317.245V70.7066L293.909 39.99H273.863L300.989 74.2969L272.866 110H293.709ZM251.896 110.798C257.348 110.798 262.268 109.634 266.656 107.307C270.978 104.98 274.402 101.656 276.928 97.3344C279.388 93.0128 280.618 87.9598 280.618 82.1755C280.618 76.4577 279.355 71.438 276.828 67.1164C274.302 62.7283 270.845 59.3707 266.457 57.0437C262.068 54.7167 257.148 53.5532 251.697 53.5532C246.245 53.5532 241.325 54.7167 236.937 57.0437C232.549 59.3707 229.091 62.7283 226.565 67.1164C224.038 71.438 222.775 76.4577 222.775 82.1755C222.775 87.8933 224.072 92.9463 226.665 97.3344C229.191 101.656 232.682 104.98 237.136 107.307C241.524 109.634 246.444 110.798 251.896 110.798ZM251.896 96.0379C248.638 96.0379 245.879 94.8411 243.619 92.4476C241.291 90.0541 240.128 86.6301 240.128 82.1755C240.128 77.7209 241.258 74.2969 243.519 71.9034C245.713 69.5099 248.439 68.3131 251.697 68.3131C255.021 68.3131 257.78 69.5099 259.974 71.9034C262.168 74.2304 263.265 77.6545 263.265 82.1755C263.265 86.6301 262.201 90.0541 260.074 92.4476C257.88 94.8411 255.154 96.0379 251.896 96.0379ZM192.286 53.7527C185.77 53.7527 180.584 55.8802 176.728 60.1353C172.805 64.324 170.844 70.1083 170.844 77.4882V110H187.798V79.782C187.798 76.0588 188.762 73.1666 190.69 71.1056C192.618 69.0445 195.211 68.0139 198.469 68.0139C201.727 68.0139 204.32 69.0445 206.248 71.1056C208.176 73.1666 209.14 76.0588 209.14 79.782V110H226.194V54.351H209.14V61.731C207.412 59.271 205.085 57.3429 202.159 55.9467C199.234 54.484 195.943 53.7527 192.286 53.7527ZM174.85 82.0758C174.85 76.358 173.787 71.3383 171.659 67.0167C169.465 62.6951 166.506 59.3707 162.783 57.0437C159.06 54.7167 154.905 53.5532 150.317 53.5532C146.394 53.5532 142.97 54.351 140.045 55.9467C137.053 57.5424 134.759 59.6367 133.164 62.2296V54.351H116.11V110H133.164V102.121C134.826 104.714 137.153 106.809 140.145 108.404C143.07 110 146.494 110.798 150.417 110.798C154.938 110.798 159.06 109.634 162.783 107.307C166.506 104.914 169.465 101.556 171.659 97.2346C173.787 92.8466 174.85 87.7936 174.85 82.0758ZM133.164 82.1755C133.164 77.9204 134.36 74.5628 136.754 72.1029C139.081 69.6429 141.94 68.4129 145.331 68.4129C148.721 68.4129 151.614 69.6429 154.007 72.1029C156.334 74.4964 157.498 77.8207 157.498 82.0758C157.498 86.3309 156.334 89.7217 154.007 92.2482C151.614 94.7082 148.721 95.9382 145.331 95.9382C141.94 95.9382 139.081 94.7082 136.754 92.2482C134.36 89.7882 133.164 86.4306 133.164 82.1755ZM82.3305 53.7527C75.8148 53.7527 70.6289 55.8802 66.7727 60.1353C62.85 64.324 60.8887 70.1083 60.8887 77.4882V110H77.8426V79.782C77.8426 76.0588 78.8067 73.1666 80.7348 71.1056C82.6629 69.0445 85.2559 68.0139 88.5137 68.0139C91.7715 68.0139 94.3645 69.0445 96.2926 71.1056C98.2207 73.1666 99.1847 76.0588 99.1847 79.782V110H116.238V54.351H99.1847V61.731C97.4561 59.271 95.1291 57.3429 92.2037 55.9467C89.2783 54.484 85.9872 53.7527 82.3305 53.7527ZM40.3615 53.5532C36.4389 53.5532 33.0148 54.351 30.0894 55.9467C27.0975 57.5424 24.8038 59.6367 23.2081 62.2296V54.351H6.15438V109.9C6.15438 115.02 7.18491 119.641 9.24599 123.763C11.2406 127.951 14.3322 131.276 18.5208 133.736C22.643 136.196 27.7956 137.426 33.9789 137.426C42.2232 137.426 48.905 135.464 54.0245 131.542C59.1439 127.685 62.0693 122.433 62.8006 115.784H45.9464C45.4145 117.912 44.1513 119.574 42.1567 120.771C40.1621 122.034 37.7021 122.666 34.7767 122.666C31.2529 122.666 28.4605 121.635 26.3994 119.574C24.2719 117.579 23.2081 114.355 23.2081 109.9V102.022C24.8702 104.615 27.164 106.742 30.0894 108.404C33.0148 110 36.4389 110.798 40.3615 110.798C44.9491 110.798 49.1045 109.634 52.8277 107.307C56.5509 104.914 59.5096 101.556 61.7036 97.2346C63.8312 92.8466 64.895 87.7936 64.895 82.0758C64.895 76.358 63.8312 71.3383 61.7036 67.0167C59.5096 62.6951 56.5509 59.3707 52.8277 57.0437C49.1045 54.7167 44.9491 53.5532 40.3615 53.5532ZM23.2081 82.1755C23.2081 77.9204 24.4048 74.5628 26.7983 72.1029C29.1254 69.6429 31.9843 68.4129 35.3751 68.4129C38.7659 68.4129 41.658 69.6429 44.0515 72.1029C46.3785 74.4964 47.5421 77.8207 47.5421 82.0758C47.5421 86.3309 46.3785 89.7217 44.0515 92.2482C41.658 94.7082 38.7659 95.9382 35.3751 95.9382C31.9843 95.9382 29.1254 94.7082 26.7983 92.2482C24.4048 89.7882 23.2081 86.4306 23.2081 82.1755Z" fill="#FDF400"/>
<path d="M293.709 110L297.014 112.516L295.767 114.153H293.709V110ZM317.245 79.0839L313.941 76.5681L321.399 66.7715V79.0839H317.245ZM317.245 110V114.153H313.092V110H317.245ZM334.299 110H338.452V114.153H334.299V110ZM334.299 39.99V35.8366H338.452V39.99H334.299ZM317.245 39.99H313.092V35.8366H317.245V39.99ZM317.245 70.7066H321.399V83.0391L313.938 73.2192L317.245 70.7066ZM293.909 39.99V35.8366H295.969L297.216 37.4774L293.909 39.99ZM273.863 39.99L270.605 42.5661L265.284 35.8366H273.863V39.99ZM300.989 74.2969L304.247 71.7208L306.28 74.292L304.252 76.867L300.989 74.2969ZM272.866 110V114.153H264.307L269.603 107.43L272.866 110ZM290.404 107.484L313.941 76.5681L320.55 81.5997L297.014 112.516L290.404 107.484ZM321.399 79.0839V110H313.092V79.0839H321.399ZM317.245 105.847H334.299V114.153H317.245V105.847ZM330.146 110V39.99H338.452V110H330.146ZM334.299 44.1434H317.245V35.8366H334.299V44.1434ZM321.399 39.99V70.7066H313.092V39.99H321.399ZM313.938 73.2192L290.601 42.5026L297.216 37.4774L320.552 68.1941L313.938 73.2192ZM293.909 44.1434H273.863V35.8366H293.909V44.1434ZM277.121 37.4139L304.247 71.7208L297.731 76.873L270.605 42.5661L277.121 37.4139ZM304.252 76.867L276.128 112.57L269.603 107.43L297.727 71.7268L304.252 76.867ZM272.866 105.847H293.709V114.153H272.866V105.847ZM266.656 107.307L268.625 110.964L268.613 110.97L268.602 110.977L266.656 107.307ZM276.928 97.3344L280.538 99.389L280.526 99.4099L280.514 99.4306L276.928 97.3344ZM276.828 67.1164L273.243 69.2126L273.236 69.2007L273.229 69.1888L276.828 67.1164ZM266.457 57.0437L264.511 60.7131L264.511 60.7131L266.457 57.0437ZM236.937 57.0437L238.883 60.7131L238.883 60.7131L236.937 57.0437ZM226.565 67.1164L230.164 69.1888L230.157 69.2007L230.15 69.2126L226.565 67.1164ZM226.665 97.3344L230.24 95.2214L230.245 95.2298L230.25 95.2382L226.665 97.3344ZM237.136 107.307L239.059 103.626L239.071 103.632L239.082 103.638L237.136 107.307ZM243.619 92.4476L246.596 89.5524L246.617 89.574L246.638 89.5958L243.619 92.4476ZM243.519 71.9034L246.58 74.7099L246.56 74.7327L246.538 74.7552L243.519 71.9034ZM259.974 71.9034L256.952 74.7527L256.932 74.7314L256.912 74.7099L259.974 71.9034ZM260.074 92.4476L263.178 95.207L263.157 95.2307L263.136 95.2542L260.074 92.4476ZM251.896 106.644C256.737 106.644 260.978 105.617 264.71 103.638L268.602 110.977C263.557 113.652 257.959 114.951 251.896 114.951V106.644ZM264.687 103.65C268.323 101.693 271.193 98.9147 273.343 95.2382L280.514 99.4306C277.61 104.397 273.633 108.268 268.625 110.964L264.687 103.65ZM273.319 95.2797C275.368 91.6799 276.465 87.358 276.465 82.1755H284.771C284.771 88.5616 283.408 94.3457 280.538 99.389L273.319 95.2797ZM276.465 82.1755C276.465 77.0878 275.347 72.8121 273.243 69.2126L280.414 65.0202C283.363 70.0639 284.771 75.8276 284.771 82.1755H276.465ZM273.229 69.1888C271.084 65.4641 268.194 62.6665 264.511 60.7131L268.402 53.3744C273.495 56.075 277.519 59.9925 280.428 65.044L273.229 69.1888ZM264.511 60.7131C260.779 58.7341 256.538 57.7066 251.697 57.7066V49.3998C257.759 49.3998 263.358 50.6993 268.402 53.3744L264.511 60.7131ZM251.697 57.7066C246.856 57.7066 242.614 58.7341 238.883 60.7131L234.991 53.3744C240.035 50.6993 245.634 49.3998 251.697 49.3998V57.7066ZM238.883 60.7131C235.199 62.6665 232.309 65.4641 230.164 69.1888L222.965 65.044C225.874 59.9925 229.898 56.075 234.991 53.3744L238.883 60.7131ZM230.15 69.2126C228.046 72.8121 226.928 77.0878 226.928 82.1755H218.622C218.622 75.8276 220.031 70.0639 222.979 65.0202L230.15 69.2126ZM226.928 82.1755C226.928 87.2427 228.07 91.5486 230.24 95.2214L223.089 99.4473C220.073 94.344 218.622 88.544 218.622 82.1755H226.928ZM230.25 95.2382C232.381 98.8828 235.294 101.659 239.059 103.626L235.213 110.989C230.069 108.302 226.001 104.429 223.079 99.4306L230.25 95.2382ZM239.082 103.638C242.814 105.617 247.055 106.644 251.896 106.644V114.951C245.833 114.951 240.235 113.652 235.19 110.977L239.082 103.638ZM251.896 100.191C247.482 100.191 243.635 98.5137 240.599 95.2994L246.638 89.5958C248.123 91.1685 249.795 91.8845 251.896 91.8845V100.191ZM240.641 95.3429C237.335 91.9431 235.975 87.3395 235.975 82.1755H244.281C244.281 85.9207 245.248 88.1652 246.596 89.5524L240.641 95.3429ZM235.975 82.1755C235.975 77.0419 237.285 72.4547 240.499 69.0516L246.538 74.7552C245.231 76.139 244.281 78.4 244.281 82.1755H235.975ZM240.457 69.0969C243.441 65.8419 247.279 64.1598 251.697 64.1598V72.4665C249.599 72.4665 247.985 73.1779 246.58 74.7099L240.457 69.0969ZM251.697 64.1598C256.154 64.1598 260.034 65.8222 263.036 69.0969L256.912 74.7099C255.526 73.1976 253.888 72.4665 251.697 72.4665V64.1598ZM262.996 69.0541C266.171 72.421 267.419 77.0343 267.419 82.1755H259.112C259.112 78.2746 258.166 76.0398 256.952 74.7527L262.996 69.0541ZM267.419 82.1755C267.419 87.2496 266.206 91.8009 263.178 95.207L256.97 89.6883C258.197 88.3074 259.112 86.0106 259.112 82.1755H267.419ZM263.136 95.2542C260.152 98.5092 256.314 100.191 251.896 100.191V91.8845C253.994 91.8845 255.608 91.1731 257.012 89.6411L263.136 95.2542ZM176.728 60.1353L179.806 62.9244L179.783 62.9496L179.76 62.9744L176.728 60.1353ZM170.844 110V114.153H166.691V110H170.844ZM187.798 110H191.951V114.153H187.798V110ZM190.69 71.1056L193.723 73.943L193.723 73.943L190.69 71.1056ZM206.248 71.1056L203.215 73.943L203.215 73.943L206.248 71.1056ZM209.14 110V114.153H204.987V110H209.14ZM226.194 110H230.347V114.153H226.194V110ZM226.194 54.351V50.1977H230.347V54.351H226.194ZM209.14 54.351H204.987V50.1977H209.14V54.351ZM209.14 61.731H213.294V74.8655L205.742 64.119L209.14 61.731ZM202.159 55.9467L200.37 59.695L200.336 59.6786L200.302 59.6616L202.159 55.9467ZM192.286 57.906C186.768 57.906 182.765 59.6595 179.806 62.9244L173.651 57.3463C178.404 52.1009 184.773 49.5993 192.286 49.5993V57.906ZM179.76 62.9744C176.746 66.1922 174.998 70.8503 174.998 77.4882H166.691C166.691 69.3662 168.865 62.4557 173.697 57.2963L179.76 62.9744ZM174.998 77.4882V110H166.691V77.4882H174.998ZM170.844 105.847H187.798V114.153H170.844V105.847ZM183.645 110V79.782H191.951V110H183.645ZM183.645 79.782C183.645 75.3504 184.804 71.3184 187.657 68.2682L193.723 73.943C192.721 75.0149 191.951 76.7672 191.951 79.782H183.645ZM187.657 68.2682C190.494 65.2356 194.256 63.8606 198.469 63.8606V72.1673C196.167 72.1673 194.743 72.8534 193.723 73.943L187.657 68.2682ZM198.469 63.8606C202.682 63.8606 206.444 65.2356 209.281 68.2682L203.215 73.943C202.196 72.8534 200.772 72.1673 198.469 72.1673V63.8606ZM209.281 68.2682C212.135 71.3184 213.294 75.3504 213.294 79.782H204.987C204.987 76.7672 204.218 75.0149 203.215 73.943L209.281 68.2682ZM213.294 79.782V110H204.987V79.782H213.294ZM209.14 105.847H226.194V114.153H209.14V105.847ZM222.041 110V54.351H230.347V110H222.041ZM226.194 58.5044H209.14V50.1977H226.194V58.5044ZM213.294 54.351V61.731H204.987V54.351H213.294ZM205.742 64.119C204.456 62.2885 202.703 60.8084 200.37 59.695L203.948 52.1984C207.466 53.8774 210.367 56.2535 212.538 59.343L205.742 64.119ZM200.302 59.6616C198.018 58.5198 195.375 57.906 192.286 57.906V49.5993C196.511 49.5993 200.449 50.4482 204.017 52.2318L200.302 59.6616ZM171.659 67.0167L175.363 65.1365L175.374 65.1593L175.385 65.1822L171.659 67.0167ZM162.783 57.0437L160.582 60.5658L160.582 60.5658L162.783 57.0437ZM140.045 55.9467L142.034 59.5929L142.017 59.6023L141.999 59.6114L140.045 55.9467ZM133.164 62.2296L136.701 64.4064L129.01 76.9036V62.2296H133.164ZM133.164 54.351V50.1977H137.317V54.351H133.164ZM116.11 54.351H111.957V50.1977H116.11V54.351ZM116.11 110V114.153H111.957V110H116.11ZM133.164 110H137.317V114.153H133.164V110ZM133.164 102.121H129.01V87.946L136.66 99.88L133.164 102.121ZM140.145 108.404L142.099 104.74L142.116 104.749L142.133 104.758L140.145 108.404ZM162.783 107.307L165.029 110.801L165.007 110.815L164.984 110.829L162.783 107.307ZM171.659 97.2346L175.396 99.0466L175.38 99.0809L175.363 99.1148L171.659 97.2346ZM136.754 72.1029L139.771 74.957L139.751 74.9783L139.731 74.9992L136.754 72.1029ZM154.007 72.1029L156.984 69.2065L156.985 69.2076L154.007 72.1029ZM154.007 92.2482L157.062 95.062L157.023 95.1038L156.984 95.1445L154.007 92.2482ZM136.754 92.2482L139.731 89.3518L139.751 89.3728L139.771 89.394L136.754 92.2482ZM170.697 82.0758C170.697 76.8761 169.732 72.5048 167.933 68.8511L175.385 65.1822C177.842 70.1717 179.004 75.8399 179.004 82.0758H170.697ZM167.956 68.8969C166.067 65.1769 163.599 62.4515 160.582 60.5658L164.984 53.5217C169.414 56.2899 172.863 60.2132 175.363 65.1365L167.956 68.8969ZM160.582 60.5658C157.549 58.6703 154.163 57.7066 150.317 57.7066V49.3998C155.646 49.3998 160.571 50.7631 164.984 53.5217L160.582 60.5658ZM150.317 57.7066C146.966 57.7066 144.249 58.3845 142.034 59.5929L138.056 52.3005C141.691 50.3176 145.823 49.3998 150.317 49.3998V57.7066ZM141.999 59.6114C139.582 60.9007 137.868 62.5104 136.701 64.4064L129.626 60.0529C131.651 56.763 134.524 54.184 138.09 52.282L141.999 59.6114ZM129.01 62.2296V54.351H137.317V62.2296H129.01ZM133.164 58.5044H116.11V50.1977H133.164V58.5044ZM120.263 54.351V110H111.957V54.351H120.263ZM116.11 105.847H133.164V114.153H116.11V105.847ZM129.01 110V102.121H137.317V110H129.01ZM136.66 99.88C137.901 101.815 139.67 103.444 142.099 104.74L138.19 112.069C134.636 110.173 131.751 107.613 129.667 104.363L136.66 99.88ZM142.133 104.758C144.349 105.967 147.066 106.644 150.417 106.644V114.951C145.923 114.951 141.791 114.033 138.156 112.051L142.133 104.758ZM150.417 106.644C154.184 106.644 157.539 105.687 160.582 103.785L164.984 110.829C160.581 113.582 155.692 114.951 150.417 114.951V106.644ZM160.537 103.814C163.582 101.856 166.063 99.0827 167.956 95.3545L175.363 99.1148C172.867 104.03 169.431 107.971 165.029 110.801L160.537 103.814ZM167.922 95.4226C169.732 91.6889 170.697 87.2736 170.697 82.0758H179.004C179.004 88.3136 177.841 94.0043 175.396 99.0466L167.922 95.4226ZM129.01 82.1755C129.01 77.1121 130.458 72.618 133.777 69.2065L139.731 74.9992C138.263 76.5077 137.317 78.7287 137.317 82.1755H129.01ZM133.737 69.2487C136.849 65.9581 140.8 64.2595 145.331 64.2595V72.5662C143.08 72.5662 141.312 73.3276 139.771 74.957L133.737 69.2487ZM145.331 64.2595C149.858 64.2595 153.819 65.9539 156.984 69.2065L151.03 74.9992C149.408 73.3318 147.585 72.5662 145.331 72.5662V64.2595ZM156.985 69.2076C160.257 72.5736 161.651 77.0497 161.651 82.0758H153.344C153.344 78.5917 152.411 76.4191 151.029 74.9981L156.985 69.2076ZM161.651 82.0758C161.651 87.1129 160.254 91.5964 157.062 95.062L150.952 89.4344C152.414 87.847 153.344 85.5489 153.344 82.0758H161.651ZM156.984 95.1445C153.819 98.3971 149.858 100.092 145.331 100.092V91.7848C147.585 91.7848 149.408 91.0192 151.03 89.3518L156.984 95.1445ZM145.331 100.092C140.8 100.092 136.849 98.3929 133.737 95.1024L139.771 89.394C141.312 91.0234 143.08 91.7848 145.331 91.7848V100.092ZM133.777 95.1445C130.458 91.733 129.01 87.2389 129.01 82.1755H137.317C137.317 85.6223 138.263 87.8433 139.731 89.3518L133.777 95.1445ZM66.7727 60.1353L69.8503 62.9244L69.8275 62.9496L69.8042 62.9744L66.7727 60.1353ZM60.8887 110V114.153H56.7353V110H60.8887ZM77.8426 110H81.996V114.153H77.8426V110ZM80.7348 71.1056L83.7679 73.943L83.7679 73.943L80.7348 71.1056ZM96.2926 71.1056L93.2595 73.943L93.2595 73.943L96.2926 71.1056ZM99.1847 110V114.153H95.0314V110H99.1847ZM116.238 110H120.392V114.153H116.238V110ZM116.238 54.351V50.1977H120.392V54.351H116.238ZM99.1847 54.351H95.0314V50.1977H99.1847V54.351ZM99.1847 61.731H103.338V74.8655L95.7865 64.119L99.1847 61.731ZM92.2037 55.9467L90.4147 59.695L90.3803 59.6786L90.3462 59.6616L92.2037 55.9467ZM82.3305 57.906C76.8126 57.906 72.8091 59.6595 69.8503 62.9244L63.6951 57.3463C68.4487 52.1009 74.817 49.5993 82.3305 49.5993V57.906ZM69.8042 62.9744C66.7907 66.1922 65.042 70.8503 65.042 77.4882H56.7353C56.7353 69.3662 58.9093 62.4557 63.7412 57.2963L69.8042 62.9744ZM65.042 77.4882V110H56.7353V77.4882H65.042ZM60.8887 105.847H77.8426V114.153H60.8887V105.847ZM73.6893 110V79.782H81.996V110H73.6893ZM73.6893 79.782C73.6893 75.3504 74.8483 71.3184 77.7017 68.2682L83.7679 73.943C82.7651 75.0149 81.996 76.7672 81.996 79.782H73.6893ZM77.7017 68.2682C80.5387 65.2356 84.3005 63.8606 88.5137 63.8606V72.1673C86.2112 72.1673 84.7871 72.8534 83.7679 73.943L77.7017 68.2682ZM88.5137 63.8606C92.7269 63.8606 96.4887 65.2356 99.3257 68.2682L93.2595 73.943C92.2402 72.8534 90.8161 72.1673 88.5137 72.1673V63.8606ZM99.3257 68.2682C102.179 71.3184 103.338 75.3504 103.338 79.782H95.0314C95.0314 76.7672 94.2623 75.0149 93.2595 73.943L99.3257 68.2682ZM103.338 79.782V110H95.0314V79.782H103.338ZM99.1847 105.847H116.238V114.153H99.1847V105.847ZM112.085 110V54.351H120.392V110H112.085ZM116.238 58.5044H99.1847V50.1977H116.238V58.5044ZM103.338 54.351V61.731H95.0314V54.351H103.338ZM95.7865 64.119C94.5002 62.2885 92.7475 60.8084 90.4147 59.695L93.9927 52.1984C97.5106 53.8774 100.412 56.2535 102.583 59.343L95.7865 64.119ZM90.3462 59.6616C88.0626 58.5198 85.4194 57.906 82.3305 57.906V49.5993C86.5551 49.5993 90.4939 50.4482 94.0611 52.2318L90.3462 59.6616ZM30.0894 55.9467L32.0783 59.5929L32.0611 59.6023L32.0439 59.6114L30.0894 55.9467ZM23.2081 62.2296L26.7453 64.4064L19.0547 76.9036V62.2296H23.2081ZM23.2081 54.351V50.1977H27.3615V54.351H23.2081ZM6.15438 54.351H2.00101V50.1977H6.15438V54.351ZM9.24599 123.763L12.9609 121.905L12.9787 121.941L12.9959 121.977L9.24599 123.763ZM18.5208 133.736L20.6242 130.154L20.6367 130.162L20.6492 130.169L18.5208 133.736ZM54.0245 131.542L51.4983 128.245L51.5119 128.234L51.5256 128.224L54.0245 131.542ZM62.8006 115.784V111.631H67.4359L66.9291 116.238L62.8006 115.784ZM45.9464 115.784L41.917 114.777L42.7035 111.631H45.9464V115.784ZM42.1567 120.771L39.9344 117.262L39.9768 117.235L40.0198 117.209L42.1567 120.771ZM26.3994 119.574L29.2401 116.544L29.2889 116.59L29.3363 116.637L26.3994 119.574ZM23.2081 102.022H19.0547V87.8462L26.7047 99.7802L23.2081 102.022ZM30.0894 108.404L28.1006 112.051L28.0689 112.033L28.0376 112.015L30.0894 108.404ZM52.8277 107.307L55.0737 110.801L55.0514 110.815L55.029 110.829L52.8277 107.307ZM61.7036 97.2346L65.4409 99.0466L65.4243 99.0809L65.407 99.1148L61.7036 97.2346ZM61.7036 67.0167L65.407 65.1365L65.4186 65.1593L65.4299 65.1822L61.7036 67.0167ZM52.8277 57.0437L50.6264 60.5658L50.6264 60.5658L52.8277 57.0437ZM26.7983 72.1029L29.8156 74.957L29.7956 74.9783L29.7752 74.9992L26.7983 72.1029ZM44.0515 72.1029L47.0283 69.2065L47.0295 69.2076L44.0515 72.1029ZM44.0515 92.2482L47.1065 95.062L47.068 95.1038L47.0283 95.1445L44.0515 92.2482ZM26.7983 92.2482L29.7752 89.3518L29.7956 89.3728L29.8156 89.394L26.7983 92.2482ZM40.3615 57.7066C37.0104 57.7066 34.2937 58.3845 32.0783 59.5929L28.1006 52.3005C31.7359 50.3176 35.8673 49.3998 40.3615 49.3998V57.7066ZM32.0439 59.6114C29.6265 60.9007 27.9121 62.5104 26.7453 64.4064L19.6709 60.0529C21.6954 56.763 24.5685 54.184 28.1349 52.282L32.0439 59.6114ZM19.0547 62.2296V54.351H27.3615V62.2296H19.0547ZM23.2081 58.5044H6.15438V50.1977H23.2081V58.5044ZM10.3077 54.351V109.9H2.00101V54.351H10.3077ZM10.3077 109.9C10.3077 114.447 11.2189 118.421 12.9609 121.905L5.53111 125.62C3.15097 120.86 2.00101 115.592 2.00101 109.9H10.3077ZM12.9959 121.977C14.6161 125.379 17.1159 128.094 20.6242 130.154L16.4175 137.317C11.5484 134.457 7.86503 130.523 5.49608 125.548L12.9959 121.977ZM20.6492 130.169C23.9675 132.149 28.3332 133.272 33.9789 133.272V141.579C27.258 141.579 21.3184 140.242 16.3924 137.302L20.6492 130.169ZM33.9789 133.272C41.5666 133.272 47.2842 131.474 51.4983 128.245L56.5506 134.838C50.5258 139.455 42.8797 141.579 33.9789 141.579V133.272ZM51.5256 128.224C55.6864 125.09 58.0599 120.896 58.6722 115.33L66.9291 116.238C66.0787 123.969 62.6014 130.281 56.5234 134.859L51.5256 128.224ZM62.8006 119.938H45.9464V111.631H62.8006V119.938ZM49.9757 116.792C49.1592 120.058 47.1691 122.607 44.2936 124.332L40.0198 117.209C41.1334 116.541 41.6698 115.766 41.917 114.777L49.9757 116.792ZM44.3789 124.28C41.5769 126.054 38.3009 126.819 34.7767 126.819V118.512C37.1032 118.512 38.7473 118.014 39.9344 117.262L44.3789 124.28ZM34.7767 126.819C30.3971 126.819 26.4606 125.509 23.4626 122.511L29.3363 116.637C30.4604 117.761 32.1087 118.512 34.7767 118.512V126.819ZM23.5588 122.604C20.2385 119.491 19.0547 114.903 19.0547 109.9H27.3615C27.3615 113.807 28.3052 115.668 29.2401 116.544L23.5588 122.604ZM19.0547 109.9V102.022H27.3615V109.9H19.0547ZM26.7047 99.7802C27.9706 101.755 29.7461 103.432 32.1412 104.793L28.0376 112.015C24.582 110.052 21.7699 107.474 19.7115 104.263L26.7047 99.7802ZM32.0783 104.758C34.2937 105.967 37.0104 106.644 40.3615 106.644V114.951C35.8673 114.951 31.7359 114.033 28.1006 112.051L32.0783 104.758ZM40.3615 106.644C44.2073 106.644 47.5937 105.681 50.6264 103.785L55.029 110.829C50.6153 113.588 45.6909 114.951 40.3615 114.951V106.644ZM50.5817 103.814C53.6265 101.856 56.1074 99.0827 58.0002 95.3545L65.407 99.1148C62.9117 104.03 59.4754 107.971 55.0737 110.801L50.5817 103.814ZM57.9664 95.4226C59.7767 91.6889 60.7416 87.2736 60.7416 82.0758H69.0483C69.0483 88.3136 67.8857 94.0043 65.4409 99.0466L57.9664 95.4226ZM60.7416 82.0758C60.7416 76.8761 59.7761 72.5048 57.9773 68.8511L65.4299 65.1822C67.8863 70.1717 69.0483 75.8399 69.0483 82.0758H60.7416ZM58.0002 68.8969C56.1116 65.1769 53.6437 62.4515 50.6264 60.5658L55.029 53.5217C59.4582 56.2899 62.9075 60.2132 65.407 65.1365L58.0002 68.8969ZM50.6264 60.5658C47.5937 58.6703 44.2073 57.7066 40.3615 57.7066V49.3998C45.6909 49.3998 50.6153 50.7631 55.029 53.5217L50.6264 60.5658ZM19.0547 82.1755C19.0547 77.1121 20.5022 72.618 23.8215 69.2065L29.7752 74.9992C28.3075 76.5077 27.3615 78.7287 27.3615 82.1755H19.0547ZM23.7811 69.2487C26.8938 65.9581 30.8445 64.2595 35.3751 64.2595V72.5662C33.1241 72.5662 31.357 73.3276 29.8156 74.957L23.7811 69.2487ZM35.3751 64.2595C39.9025 64.2595 43.8637 65.9539 47.0283 69.2065L41.0747 74.9992C39.4523 73.3318 37.6292 72.5662 35.3751 72.5662V64.2595ZM47.0295 69.2076C50.3019 72.5736 51.6954 77.0497 51.6954 82.0758H43.3887C43.3887 78.5917 42.4552 76.4191 41.0736 74.9981L47.0295 69.2076ZM51.6954 82.0758C51.6954 87.1129 50.2984 91.5964 47.1065 95.062L40.9965 89.4344C42.4586 87.847 43.3887 85.5489 43.3887 82.0758H51.6954ZM47.0283 95.1445C43.8637 98.3971 39.9025 100.092 35.3751 100.092V91.7848C37.6292 91.7848 39.4523 91.0192 41.0747 89.3518L47.0283 95.1445ZM35.3751 100.092C30.8445 100.092 26.8938 98.3929 23.7811 95.1024L29.8156 89.394C31.357 91.0234 33.1241 91.7848 35.3751 91.7848V100.092ZM23.8215 95.1445C20.5022 91.733 19.0547 87.2389 19.0547 82.1755H27.3615C27.3615 85.6223 28.3075 87.8433 29.7752 89.3518L23.8215 95.1445Z" fill="#0C0B0B"/>
</svg>
