<svg width="157" height="53" viewBox="0 0 157 53" fill="none" xmlns="http://www.w3.org/2000/svg">
<path d="M86.284 43L80.6172 35.5564V43H76.5112V26.1438H80.6172V33.5394L86.236 26.1438H91.0623L84.5311 34.4038L91.3024 43H86.284ZM96.3513 43.1921C95.0386 43.1921 93.8541 42.912 92.7975 42.3517C91.757 41.7914 90.9326 40.991 90.3243 39.9505C89.732 38.91 89.4359 37.6934 89.4359 36.3007C89.4359 34.9241 89.74 33.7155 90.3483 32.675C90.9566 31.6184 91.789 30.8101 92.8456 30.2498C93.9021 29.6895 95.0867 29.4094 96.3993 29.4094C97.7119 29.4094 98.8965 29.6895 99.953 30.2498C101.01 30.8101 101.842 31.6184 102.45 32.675C103.059 33.7155 103.363 34.9241 103.363 36.3007C103.363 37.6774 103.051 38.894 102.426 39.9505C101.818 40.991 100.978 41.7914 99.905 42.3517C98.8485 42.912 97.6639 43.1921 96.3513 43.1921ZM96.3513 39.6384C97.1357 39.6384 97.8 39.3502 98.3442 38.7739C98.9045 38.1977 99.1847 37.3733 99.1847 36.3007C99.1847 35.2282 98.9125 34.4038 98.3683 33.8275C97.84 33.2512 97.1837 32.9631 96.3993 32.9631C95.5989 32.9631 94.9346 33.2512 94.4063 33.8275C93.8781 34.3878 93.6139 35.2122 93.6139 36.3007C93.6139 37.3733 93.8701 38.1977 94.3823 38.7739C94.9106 39.3502 95.5669 39.6384 96.3513 39.6384ZM110.704 29.4574C112.272 29.4574 113.521 29.9696 114.449 30.9941C115.394 32.0026 115.866 33.3953 115.866 35.1722V43H111.784V35.7244C111.784 34.828 111.552 34.1317 111.088 33.6354C110.623 33.1392 109.999 32.8911 109.215 32.8911C108.43 32.8911 107.806 33.1392 107.342 33.6354C106.878 34.1317 106.646 34.828 106.646 35.7244V43H102.54V29.6015H106.646V31.3783C107.062 30.786 107.622 30.3218 108.326 29.9856C109.031 29.6335 109.823 29.4574 110.704 29.4574ZM114.901 36.2767C114.901 34.9 115.158 33.6915 115.67 32.6509C116.198 31.6104 116.91 30.8101 117.807 30.2498C118.703 29.6895 119.704 29.4094 120.808 29.4094C121.753 29.4094 122.577 29.6015 123.282 29.9856C124.002 30.3698 124.554 30.8741 124.938 31.4984V29.6015H129.044V43H124.938V41.1031C124.538 41.7274 123.978 42.2316 123.258 42.6158C122.553 43 121.729 43.1921 120.784 43.1921C119.696 43.1921 118.703 42.912 117.807 42.3517C116.91 41.7754 116.198 40.967 115.67 39.9265C115.158 38.87 114.901 37.6534 114.901 36.2767ZM124.938 36.3007C124.938 35.2762 124.65 34.4678 124.074 33.8755C123.514 33.2833 122.825 32.9871 122.009 32.9871C121.193 32.9871 120.496 33.2833 119.92 33.8755C119.36 34.4518 119.079 35.2522 119.079 36.2767C119.079 37.3012 119.36 38.1176 119.92 38.7259C120.496 39.3182 121.193 39.6143 122.009 39.6143C122.825 39.6143 123.514 39.3182 124.074 38.7259C124.65 38.1336 124.938 37.3252 124.938 36.3007ZM137.177 29.4574C138.746 29.4574 139.995 29.9696 140.923 30.9941C141.868 32.0026 142.34 33.3953 142.34 35.1722V43H138.258V35.7244C138.258 34.828 138.026 34.1317 137.562 33.6354C137.097 33.1392 136.473 32.8911 135.689 32.8911C134.904 32.8911 134.28 33.1392 133.816 33.6354C133.352 34.1317 133.119 34.828 133.119 35.7244V43H129.013V29.6015H133.119V31.3783C133.536 30.786 134.096 30.3218 134.8 29.9856C135.505 29.6335 136.297 29.4574 137.177 29.4574ZM147.282 29.4094C148.227 29.4094 149.051 29.6015 149.755 29.9856C150.476 30.3698 151.028 30.8741 151.412 31.4984V29.6015H155.518V42.976C155.518 44.2086 155.27 45.3211 154.774 46.3136C154.294 47.3221 153.549 48.1225 152.541 48.7148C151.548 49.3071 150.308 49.6032 148.819 49.6032C146.834 49.6032 145.225 49.131 143.993 48.1865C142.76 47.2581 142.056 45.9935 141.88 44.3927H145.938C146.066 44.9049 146.37 45.3051 146.85 45.5933C147.33 45.8974 147.923 46.0495 148.627 46.0495C149.475 46.0495 150.148 45.8014 150.644 45.3051C151.156 44.8249 151.412 44.0485 151.412 42.976V41.0791C151.012 41.7034 150.46 42.2156 149.755 42.6158C149.051 43 148.227 43.1921 147.282 43.1921C146.178 43.1921 145.177 42.912 144.281 42.3517C143.384 41.7754 142.672 40.967 142.144 39.9265C141.631 38.87 141.375 37.6534 141.375 36.2767C141.375 34.9 141.631 33.6915 142.144 32.6509C142.672 31.6104 143.384 30.8101 144.281 30.2498C145.177 29.6895 146.178 29.4094 147.282 29.4094ZM151.412 36.3007C151.412 35.2762 151.124 34.4678 150.548 33.8755C149.988 33.2833 149.299 32.9871 148.483 32.9871C147.666 32.9871 146.97 33.2833 146.394 33.8755C145.833 34.4518 145.553 35.2522 145.553 36.2767C145.553 37.3012 145.833 38.1176 146.394 38.7259C146.97 39.3182 147.666 39.6143 148.483 39.6143C149.299 39.6143 149.988 39.3182 150.548 38.7259C151.124 38.1336 151.412 37.3252 151.412 36.3007Z" fill="#1F66F7"/>
<path d="M70.716 26L76.3828 18.5564V26H80.4888V9.14377H76.3828V16.5394L70.764 9.14377H65.9377L72.4689 17.4038L65.6976 26H70.716ZM60.6487 26.1921C61.9614 26.1921 63.1459 25.912 64.2025 25.3517C65.243 24.7914 66.0674 23.991 66.6757 22.9505C67.268 21.91 67.5641 20.6934 67.5641 19.3007C67.5641 17.9241 67.26 16.7155 66.6517 15.675C66.0434 14.6184 65.211 13.8101 64.1544 13.2498C63.0979 12.6895 61.9133 12.4094 60.6007 12.4094C59.2881 12.4094 58.1035 12.6895 57.047 13.2498C55.9905 13.8101 55.158 14.6184 54.5497 15.675C53.9414 16.7155 53.6373 17.9241 53.6373 19.3007C53.6373 20.6774 53.9495 21.894 54.5738 22.9505C55.1821 23.991 56.0225 24.7914 57.095 25.3517C58.1515 25.912 59.3361 26.1921 60.6487 26.1921ZM60.6487 22.6384C59.8643 22.6384 59.2 22.3502 58.6558 21.7739C58.0955 21.1977 57.8153 20.3733 57.8153 19.3007C57.8153 18.2282 58.0875 17.4038 58.6317 16.8275C59.16 16.2512 59.8163 15.9631 60.6007 15.9631C61.4011 15.9631 62.0654 16.2512 62.5937 16.8275C63.1219 17.3878 63.3861 18.2122 63.3861 19.3007C63.3861 20.3733 63.1299 21.1977 62.6177 21.7739C62.0894 22.3502 61.4331 22.6384 60.6487 22.6384ZM46.2965 12.4574C44.7277 12.4574 43.4791 12.9696 42.5506 13.9941C41.6062 15.0026 41.1339 16.3953 41.1339 18.1722V26H45.2159V18.7244C45.2159 17.828 45.4481 17.1317 45.9123 16.6354C46.3765 16.1392 47.0008 15.8911 47.7852 15.8911C48.5696 15.8911 49.1939 16.1392 49.6581 16.6354C50.1223 17.1317 50.3544 17.828 50.3544 18.7244V26H54.4605V12.6015H50.3544V14.3783C49.9382 13.786 49.378 13.3218 48.6736 12.9856C47.9693 12.6335 47.1769 12.4574 46.2965 12.4574ZM42.0985 19.2767C42.0985 17.9 41.8424 16.6915 41.3302 15.6509C40.8019 14.6104 40.0896 13.8101 39.1931 13.2498C38.2967 12.6895 37.2962 12.4094 36.1917 12.4094C35.2472 12.4094 34.4228 12.6015 33.7185 12.9856C32.9981 13.3698 32.4458 13.8741 32.0616 14.4984V12.6015H27.9556V26H32.0616V24.1031C32.4618 24.7274 33.0221 25.2316 33.7425 25.6158C34.4468 26 35.2712 26.1921 36.2157 26.1921C37.3042 26.1921 38.2967 25.912 39.1931 25.3517C40.0896 24.7754 40.8019 23.967 41.3302 22.9265C41.8424 21.87 42.0985 20.6534 42.0985 19.2767ZM32.0616 19.3007C32.0616 18.2762 32.3498 17.4678 32.9261 16.8755C33.4863 16.2833 34.1747 15.9871 34.9911 15.9871C35.8075 15.9871 36.5038 16.2833 37.0801 16.8755C37.6404 17.4518 37.9205 18.2522 37.9205 19.2767C37.9205 20.3012 37.6404 21.1176 37.0801 21.7259C36.5038 22.3182 35.8075 22.6143 34.9911 22.6143C34.1747 22.6143 33.4863 22.3182 32.9261 21.7259C32.3498 21.1336 32.0616 20.3252 32.0616 19.3007ZM19.8226 12.4574C18.2538 12.4574 17.0052 12.9696 16.0768 13.9941C15.1323 15.0026 14.6601 16.3953 14.6601 18.1722V26H18.7421V18.7244C18.7421 17.828 18.9742 17.1317 19.4384 16.6354C19.9027 16.1392 20.527 15.8911 21.3113 15.8911C22.0957 15.8911 22.72 16.1392 23.1843 16.6354C23.6485 17.1317 23.8806 17.828 23.8806 18.7244V26H27.9866V12.6015H23.8806V14.3783C23.4644 13.786 22.9041 13.3218 22.1998 12.9856C21.4954 12.6335 20.703 12.4574 19.8226 12.4574ZM9.7178 12.4094C8.77334 12.4094 7.94894 12.6015 7.24459 12.9856C6.52424 13.3698 5.97197 13.8741 5.58779 14.4984V12.6015H1.48178V25.976C1.48178 27.2086 1.7299 28.3211 2.22614 29.3136C2.70638 30.3221 3.45074 31.1225 4.45923 31.7148C5.45172 32.3071 6.69232 32.6032 8.18105 32.6032C10.166 32.6032 11.7748 32.131 13.0074 31.1865C14.24 30.2581 14.9444 28.9935 15.1204 27.3927H11.0625C10.9344 27.9049 10.6302 28.3051 10.15 28.5933C9.66978 28.8974 9.07749 29.0495 8.37314 29.0495C7.52473 29.0495 6.8524 28.8014 6.35616 28.3051C5.84391 27.8249 5.58779 27.0485 5.58779 25.976V24.0791C5.98798 24.7034 6.54025 25.2156 7.24459 25.6158C7.94894 26 8.77334 26.1921 9.7178 26.1921C10.8223 26.1921 11.8228 25.912 12.7193 25.3517C13.6157 24.7754 14.3281 23.967 14.8563 22.9265C15.3686 21.87 15.6247 20.6534 15.6247 19.2767C15.6247 17.9 15.3686 16.6915 14.8563 15.6509C14.3281 14.6104 13.6157 13.8101 12.7193 13.2498C11.8228 12.6895 10.8223 12.4094 9.7178 12.4094ZM5.58779 19.3007C5.58779 18.2762 5.87593 17.4678 6.45221 16.8755C7.01248 16.2833 7.70082 15.9871 8.51722 15.9871C9.33361 15.9871 10.03 16.2833 10.6062 16.8755C11.1665 17.4518 11.4466 18.2522 11.4466 19.2767C11.4466 20.3012 11.1665 21.1176 10.6062 21.7259C10.03 22.3182 9.33361 22.6143 8.51722 22.6143C7.70082 22.6143 7.01248 22.3182 6.45221 21.7259C5.87593 21.1336 5.58779 20.3252 5.58779 19.3007Z" fill="#FDF400"/>
</svg>
